<svg xmlns="http://www.w3.org/2000/svg" width="16" height="16" viewBox="0 0 16 16">
    <path fill="#7A7A7A" fill-rule="nonzero" d="M8.968 0c.446 0 .607.046.77.134.163.087.291.215.378.378.088.163.134.324.134.77V1.5H12V2h3.5c.276 0 .5.216.5.483v13.034a.492.492 0 0 1-.5.483H.5a.492.492 0 0 1-.5-.483V2.483C0 2.216.224 2 .5 2H4v-.5h1.75v-.218c0-.446.046-.607.134-.77a.909.909 0 0 1 .378-.378C6.425.046 6.586 0 7.032 0h1.936zM4 3H1v12h14V3h-3v2H4V3zm1.046 5l3.932 3.848 2.936-1.776L14 12.144V14H2v-2.367L5.046 8zM9.25 7a1 1 0 1 1 0 2 1 1 0 0 1 0-2zM8 .75a.75.75 0 1 0 0 1.5.75.75 0 0 0 0-1.5z"/>
</svg>
