<svg xmlns="http://www.w3.org/2000/svg" width="576" height="384" viewBox="0 0 576 384">
    <path fill="#7A7A7A" fill-rule="evenodd" d="M572.52 177.4C518.29 71.59 410.93 0 288 0 165.07 0 57.68 71.64 3.48 177.41c-4.64 9.177-4.64 20.013 0 29.19C57.71 312.41 165.07 384 288 384c122.93 0 230.32-71.64 284.52-177.41 4.639-9.177 4.639-20.013 0-29.19zM288 336c-79.53 0-144-64.471-144-144S208.47 48 288 48c79.528 0 144 64.471 144 144 .018 38.197-15.147 74.835-42.157 101.844C362.834 320.854 326.196 336.019 288 336zm0-240c-8.57.12-17.083 1.395-25.31 3.79 14.015 19.046 12.015 45.474-4.706 62.195-16.72 16.721-43.148 18.72-62.195 4.705-10.761 39.648 4.96 81.743 39.077 104.63 34.116 22.887 79.028 21.468 111.632-3.527s45.637-67.998 32.394-106.887C365.65 122.016 329.082 95.903 288 96z"/>
</svg>
