<svg xmlns="http://www.w3.org/2000/svg" width="16" height="16" viewBox="0 0 16 16">
    <path fill="#7A7A7A" fill-rule="evenodd" d="M6.715 4.853A4.241 4.241 0 0 1 9.911 6.23c.342.374.35.935.018 1.318l-.013.014a1.059 1.059 0 0 1-1.579.018 2.13 2.13 0 0 0-3.142.014h.001l-.019.02-2.6 3.03a1.998 1.998 0 0 0 .313 2.9 2.178 2.178 0 0 0 2.931-.342l1.099-1.28a1.07 1.07 0 0 1 1.477-.128c.445.36.504 1.005.133 1.437l-1.095 1.276a4.341 4.341 0 0 1-2.943 1.478 4.192 4.192 0 0 1-3.052-.959 4.05 4.05 0 0 1-1.426-2.752 4.018 4.018 0 0 1 .952-2.94l2.594-3.02a4.234 4.234 0 0 1 3.155-1.461zM11.431.02a4.287 4.287 0 0 1 3.038.876 3.978 3.978 0 0 1 1.511 2.752 4.119 4.119 0 0 1-.971 3.08l-2.55 2.969a4.171 4.171 0 0 1-1.868 1.245 4.26 4.26 0 0 1-4.41-1.081 1.002 1.002 0 0 1 .055-1.441 1.07 1.07 0 0 1 1.481.05c.68.71 1.782.853 2.63.341.179-.106.339-.239.475-.393l.024-.025 2.556-2.978a2.039 2.039 0 0 0-.175-2.867 2.13 2.13 0 0 0-2.99.215l-1.23 1.432a1.069 1.069 0 0 1-1.477.13 1.002 1.002 0 0 1-.132-1.439l1.229-1.431A4.242 4.242 0 0 1 11.431.02z"/>
</svg>
