<svg xmlns="http://www.w3.org/2000/svg" width="32" height="28" viewBox="0 0 32 28">
    <path fill="#4A4A4A" fill-rule="nonzero" d="M1 22v5h5v1H0v-6h1zm31 0v6h-6v-1h5v-5h1zM16.01 6a7.975 7.975 0 0 1 7.183 4.489l.12.258.035.08a7.477 7.477 0 0 1 .65 3.166c0 4.417-3.6 8.007-8.01 8.007a7.991 7.991 0 0 1-7.182-4.51l-.12-.258-.035-.08A7.797 7.797 0 0 1 8 14c0-4.41 3.601-8 8.01-8zm0 1C12.15 7 9 10.144 9 14c0 .862.151 1.687.45 2.465l.118.29.032.073A6.993 6.993 0 0 0 15.99 21c3.86 0 7.009-3.145 7.009-7.017a6.437 6.437 0 0 0-.444-2.456l-.125-.302-.032-.073A6.975 6.975 0 0 0 16.01 7zm-.005 3c1.525 0 2.894.86 3.564 2.19l.087.183.018.04c.224.511.335 1.038.325 1.583A4.01 4.01 0 0 1 15.994 18a3.995 3.995 0 0 1-3.564-2.2l-.087-.184-.017-.04A3.899 3.899 0 0 1 12 14c0-2.205 1.8-4 4.005-4zM6 0v1H1v5H0V0h6zm26 0v6h-1V1h-5V0h6z"/>
</svg>
