<svg xmlns="http://www.w3.org/2000/svg" width="16" height="16" viewBox="0 0 16 16">
    <path fill="#7A7A7A" fill-rule="nonzero" d="M8 0C3.6 0 0 3.6 0 8s3.6 8 8 8 8-3.6 8-8-3.6-8-8-8zm6.185 10.42l.538-.538.027-.053c-.108.35-.216.699-.377 1.048l-.188-.457zm.269-1.882l-.807-.807v-.538l.538.538.726 1.237c0 .08-.027.161-.027.215l-.43-.645zM12.84 5.31l.807.269.538.538-.807-.538-.538.269V5.31zM4.773 2.353v.538l-.538-.27-.43-.214c.108-.08.242-.162.377-.242l.591.188zm-3.765 6.05l.27.135.268.269h.538l.807.538v.537l-.27.538.539.807.806.807.27.537v1.318c-1.83-1.183-3.093-3.173-3.228-5.486zm4.814 6.239l.296-.457.269-.807.537-.269.27-1.075.537-.807-.538-.269-1.075-.538-.27-.807h-.806l-.269-.537-1.076-.538-.537.807-.538-.27v-.537l-.27-.27v-.537l-.537.538L1.277 8v-.538l.807-.538.807.538.538-.538L4.504 5.58l.807-.27v-.537l.807.269.269-.807-.27-.538-.806-.268-.269.537h-.538v.538l-.807-.538.27-.269 1.075-.537.538-.538h.269l-.27.538.539.269.537-.538-.268-.807H5.58l-.27.538-.268-.538.215-.51c.215-.082.404-.162.619-.243l.242.484h.537l.27.807v.538l.537.806.27-.537.806-.538.538-1.076.215-.699a6.797 6.797 0 0 1 3.2 1.506l-.995.269-.538.538-.538.268 1.076.27h.538l-.27-.807h.539l-.27 1.075h-1.075l-.538.27-.269.537-.269.538h-.269l-.268.269.537.269.807-.807.538.269.538.538v-.27l-.27-.537.808.538.537.269.538.269s.538.537.27.537c-.27 0-1.077-.269-1.077-.269l-.806.27-.538-.807H10.15l-.806.269-.807 1.075-.27.807.27 1.076.807.537 1.075-.269.807.27v.806l.269.807-.27.538.727 1.72A6.896 6.896 0 0 1 8 14.993a7.244 7.244 0 0 1-2.178-.35zm4.06-10.945l.538.807h-.538v.27l-.537-.27.537-.807z"/>
</svg>
