<svg xmlns="http://www.w3.org/2000/svg" width="32" height="28" viewBox="0 0 32 28">
    <g fill="#4A4A4A" fill-rule="evenodd">
        <path d="M1 22v5h5v1H0v-6h1zm31 0v6h-6v-1h5v-5h1zM7 19v2h2v1H6v-3h1zm19 0v3h-3v-1h2v-2h1zm-8 2v1h-4v-1h4zm8-9v4h-1v-4h1zM7 12v4H6v-4h1zm19-6v3h-1V7h-2V6h3zM9 6v1H7v2H6V6h3zM1 6H0V0h6v1H1v5zm17 0v1h-4V6h4zm14-6v6h-1V1h-5V0h6z"/>
        <path fill-opacity=".36" d="M9 7h1V6h1v1h1V6h1v1h1V6h5v1h1V6h1v1h1V6h4v4h-1v1h-1v1h1v-1h1v5h-1v1h-1v1h1v-1h1v1h-1v1h-1v1h1v-1h1v3h-3v-1h-1v1h-1v-1h-1v1h-1v-1h-1v1h-5v-1h-1v1h-1v-1h-1v1H6v-4h1v-1H6v-5h1v-1H6v-1h1V9H6V6h3v1zm3 13h-1v1h1v-1zm2 0h-1v1h1v-1zm2 0h-1v1h1v-1zm2 0h-1v1h1v-1zm-8 0H9v1h1v-1zm-2 0H7v1h1v-1zm14 0h-1v1h1v-1zm2 0h-1v1h1v-1zm-4 0h-1v1h1v-1zm3-1h-1v1h1v-1zm-12 0h-1v1h1v-1zm6 0h-1v1h1v-1zm2 0h-1v1h1v-1zM9 19H8v1h1v-1zm6 0h-1v1h1v-1zm-2 0h-1v1h1v-1zm8 0h-1v1h1v-1zm-11-1H9v1h1v-1zm14 0h-1v1h1v-1zm-8 0h-1v1h1v-1zm-4 0h-1v1h1v-1zm8 0h-1v1h1v-1zm-6 0h-1v1h1v-1zm-6 0H7v1h1v-1zm10 0h-1v1h1v-1zm4 0h-1v1h1v-1zm-11-1h-1v1h1v-1zm6 0h-1v1h1v-1zm-8 0H8v1h1v-1zm14 0h-1v1h1v-1zm-10 0h-1v1h1v-1zm8 0h-1v1h1v-1zm-2 0h-1v1h1v-1zm-4 0h-1v1h1v-1zm9-1h-1v1h1v-1zm-14 0H9v1h1v-1zm4 0h-1v1h1v-1zm8 0h-1v1h1v-1zM8 16H7v1h1v-1zm8 0h-1v1h1v-1zm4 0h-1v1h1v-1zm-2 0h-1v1h1v-1zm-6 0h-1v1h1v-1zm7-1h-1v1h1v-1zm4 0h-1v1h1v-1zm-10 0h-1v1h1v-1zm12 0h-1v1h1v-1zM9 15H8v1h1v-1zm2 0h-1v1h1v-1zm10 0h-1v1h1v-1zm-6 0h-1v1h1v-1zm2 0h-1v1h1v-1zm1-1h-1v1h1v-1zm6 0h-1v1h1v-1zm-10 0h-1v1h1v-1zm-6 0H7v1h1v-1zm12 0h-1v1h1v-1zm-10 0H9v1h1v-1zm2 0h-1v1h1v-1zm10 0h-1v1h1v-1zm-6 0h-1v1h1v-1zm1-1h-1v1h1v-1zm8 0h-1v1h1v-1zm-10 0h-1v1h1v-1zm8 0h-1v1h1v-1zm-12 0h-1v1h1v-1zm2 0h-1v1h1v-1zm-4 0H8v1h1v-1zm10 0h-1v1h1v-1zm2 0h-1v1h1v-1zm-1-1h-1v1h1v-1zm-4 0h-1v1h1v-1zm2 0h-1v1h1v-1zm-6 0h-1v1h1v-1zm-4 0H7v1h1v-1zm16 0h-1v1h1v-1zm-2 0h-1v1h1v-1zm-8 0h-1v1h1v-1zm-4 0H9v1h1v-1zm3-1h-1v1h1v-1zm2 0h-1v1h1v-1zm-6 0H8v1h1v-1zm2 0h-1v1h1v-1zm6 0h-1v1h1v-1zm2 0h-1v1h1v-1zm4 0h-1v1h1v-1zm-2 0h-1v1h1v-1zM8 10H7v1h1v-1zm14 0h-1v1h1v-1zm-4 0h-1v1h1v-1zm2 0h-1v1h1v-1zm-10 0H9v1h1v-1zm6 0h-1v1h1v-1zm-4 0h-1v1h1v-1zm2 0h-1v1h1v-1zm10 0h-1v1h1v-1zM9 9H8v1h1V9zm4 0h-1v1h1V9zm10 0h-1v1h1V9zm-4 0h-1v1h1V9zm-2 0h-1v1h1V9zm4 0h-1v1h1V9zm-6 0h-1v1h1V9zm10 0h-1v1h1V9zM11 9h-1v1h1V9zm3-1h-1v1h1V8zm-2 0h-1v1h1V8zm8 0h-1v1h1V8zm2 0h-1v1h1V8zM10 8H9v1h1V8zm8 0h-1v1h1V8zM8 8H7v1h1V8zm8 0h-1v1h1V8zm8 0h-1v1h1V8zm-3-1h-1v1h1V7zm4 0h-1v1h1V7zM13 7h-1v1h1V7zm10 0h-1v1h1V7zM9 7H8v1h1V7zm8 0h-1v1h1V7zm-2 0h-1v1h1V7zm4 0h-1v1h1V7zm-8 0h-1v1h1V7z"/>
    </g>
</svg>
