<svg xmlns="http://www.w3.org/2000/svg" width="16" height="16" viewBox="0 0 16 16">
    <path fill="#7A7A7A" fill-rule="nonzero" d="M8.766 0c.525 0 .957.421.968.945l.012.618a.577.577 0 0 0 .304.446l.736.305a.574.574 0 0 0 .53-.1l.447-.428a.968.968 0 0 1 1.352.016l1.083 1.083a.97.97 0 0 1 .016 1.353l-.428.445a.577.577 0 0 0-.1.531l.304.736c.063.151.282.3.446.304l.618.012c.524.01.945.443.946.968v1.532a.969.969 0 0 1-.945.968l-.618.012a.577.577 0 0 0-.446.304l-.305.736a.574.574 0 0 0 .1.53l.428.447a.968.968 0 0 1-.016 1.352l-1.083 1.083a.97.97 0 0 1-1.353.016l-.445-.428a.577.577 0 0 0-.531-.1l-.736.304a.574.574 0 0 0-.304.446l-.012.618a.969.969 0 0 1-.968.946H7.234a.969.969 0 0 1-.968-.945l-.012-.618a.577.577 0 0 0-.304-.446l-.736-.305a.574.574 0 0 0-.53.1l-.447.428a.968.968 0 0 1-1.352-.016l-1.083-1.083a.97.97 0 0 1-.016-1.353l.428-.445a.577.577 0 0 0 .1-.531l-.304-.736a.574.574 0 0 0-.446-.304l-.618-.012A.969.969 0 0 1 0 8.766V7.234c0-.525.421-.957.945-.968l.618-.012a.577.577 0 0 0 .446-.304l.305-.736a.574.574 0 0 0-.1-.53l-.428-.447a.968.968 0 0 1 .016-1.352l1.083-1.083a.97.97 0 0 1 1.353-.016l.445.428c.119.114.38.163.531.1l.736-.304a.574.574 0 0 0 .304-.446l.012-.618A.969.969 0 0 1 7.234 0h1.532zm.568 4.779a3.486 3.486 0 1 0-2.668 6.442A3.486 3.486 0 0 0 9.334 4.78z"/>
</svg>
