<svg xmlns="http://www.w3.org/2000/svg" width="16" height="16" viewBox="0 0 16 16">
    <path fill="#FFF" fill-rule="nonzero" stroke="#7A7A7A" d="M14.468 5.359h-.006l-3.955-.292-.115-.293L9.008 1.23C8.818.772 8.427.5 7.995.5c-.431 0-.823.27-1.003.705l-1.51 3.862-.314.023-3.653.269C.557 5.42.134 6.739.879 7.417l3.025 2.67-.067.29-.86 3.69c-.184.735.345 1.433 1.04 1.433.202 0 .41-.065.594-.193l3.337-2.163.272.174 3.135 2.015a.956.956 0 0 0 .54.167c.676 0 1.191-.678 1.043-1.418l-.934-4.012.232-.198 2.866-2.448c.77-.682.346-2.004-.634-2.065z"/>
</svg>
