<?xml version="1.0" encoding="UTF-8"?>
<svg width="16px" height="16px" viewBox="0 0 16 16" version="1.1" xmlns="http://www.w3.org/2000/svg" xmlns:xlink="http://www.w3.org/1999/xlink">
    <!-- Generator: Sketch 64 (93537) - https://sketch.com -->
    <title>Icons / Card actions / Compact / Share settings set</title>
    <desc>Created with Sketch.</desc>
    <g id="Icons-/-Card-actions-/-Compact-/-Share-settings-set" stroke="none" stroke-width="1" fill="none" fill-rule="evenodd">
        <path d="M13.867008,7.467008 L13.867008,5.867008 C13.867008,2.614016 11.254016,-1.77635684e-15 8,-1.77635684e-15 C4.747008,-1.77635684e-15 2.132992,2.612992 2.132992,5.867008 L2.132992,7.467008 L1,7.467008 C0.44771525,7.467008 -6.76353751e-17,7.91472325 0,8.467008 L0,15 C6.76353751e-17,15.5522847 0.44771525,16 1,16 L15,16 C15.5522847,16 16,15.5522847 16,15 L16,8.467008 C16,7.91472325 15.5522847,7.467008 15,7.467008 L13.867008,7.467008 L13.867008,7.467008 Z M8.532992,11.574016 L8.532992,13.334016 L7.465984,13.334016 L7.465984,11.574016 C7.145984,11.414016 6.932992,11.041024 6.932992,10.667008 C6.932992,10.08 7.412992,9.6 8,9.6 C8.587008,9.6 9.067008,10.08 9.067008,10.667008 C9.067008,11.04 8.85300736,11.414016 8.5330176,11.574016 L8.532992,11.574016 Z M8,7.467008 L4.267008,7.467008 L4.267008,5.867008 C4.267008,3.787008 5.92,2.134016 8,2.134016 C10.08,2.134016 11.732992,3.787008 11.732992,5.867008 L11.732992,7.467008 L8,7.467008 Z" id="icons__locked" fill="#4A4A4A"></path>
    </g>
</svg>