<?xml version="1.0" encoding="UTF-8"?>
<svg width="16px" height="16px" viewBox="0 0 16 16" version="1.1" xmlns="http://www.w3.org/2000/svg" xmlns:xlink="http://www.w3.org/1999/xlink">
    <!-- Generator: Sketch 64 (93537) - https://sketch.com -->
    <title>Icons / Card actions / Compact / Share settings</title>
    <desc>Created with Sketch.</desc>
    <g id="Icons-/-Card-actions-/-Compact-/-Share-settings" stroke="none" stroke-width="1" fill="none" fill-rule="evenodd">
        <path d="M15,7.467008 C15.5522847,7.467008 16,7.91472325 16,8.467008 L16,8.467008 L16,15 C16,15.5522847 15.5522847,16 15,16 L15,16 L1,16 C0.44771525,16 6.76353751e-17,15.5522847 0,15 L0,15 L0,8.467008 C-6.76353751e-17,7.91472325 0.44771525,7.467008 1,7.467008 L1,7.467008 L2.132992,7.467008 L2.132992,5.867008 C2.132992,2.612992 4.747008,0 8,0 C9.76972668,0 11.3498494,0.773181172 12.4231491,2.00183018 C11.4407063,3.03930038 10.9508177,3.56099507 10.948807,3.56268736 C10.2688915,2.68994493 9.20625075,2.134016 8,2.134016 C5.92,2.134016 4.267008,3.787008 4.267008,5.867008 L4.267008,5.867008 L4.267008,7.467008 Z M8.532992,13.334016 L7.465984,13.334016 L7.465984,11.574016 C7.145984,11.414016 6.932992,11.041024 6.932992,10.667008 C6.932992,10.08 7.412992,9.6 8,9.6 C8.587008,9.6 9.067008,10.08 9.067008,10.667008 C9.067008,11.04 8.85300736,11.414016 8.5330176,11.574016 L8.532992,13.334016 Z" fill="#4A4A4A"></path>
    </g>
</svg>