<svg xmlns="http://www.w3.org/2000/svg" width="16" height="16" viewBox="0 0 16 16">
    <path fill="#7A7A7A" fill-rule="evenodd" d="M4.1 2l-.997 1H1v12h14V3h-2.107l-.995-1H15.5c.276 0 .5.216.5.483v13.034a.492.492 0 0 1-.5.483H.5a.492.492 0 0 1-.5-.483V2.483C0 2.216.224 2 .5 2h3.6zM8.625.257l3.098 3.114c.37.371.37.97 0 1.314a.916.916 0 0 1-.598.23.95.95 0 0 1-.654-.257L8.854 3v6.512c0 .485-.37.888-.853.888s-.853-.401-.853-.888V3L5.5 4.628a.877.877 0 0 1-.625.257.73.73 0 0 1-.597-.2.918.918 0 0 1 0-1.314L7.375.257a.889.889 0 0 1 1.25 0z"/>
</svg>
